<svg width="151" height="27" viewBox="0 0 151 27" fill="none" xmlns="http://www.w3.org/2000/svg">
<path d="M4.4638 18.6606C4.33177 18.9251 4.16007 19.1765 3.9488 19.4139C3.74625 19.6423 3.51735 19.8457 3.262 20.021C3.00666 20.1973 2.72937 20.3335 2.43005 20.4307C2.13944 20.5359 1.83571 20.589 1.51876 20.589C1.28986 20.589 1.09171 20.5319 0.924418 20.4177C0.765941 20.3035 0.638316 20.1051 0.541447 19.8236L0 18.1988C0.0968693 18.1547 0.237717 18.1016 0.42264 18.0405C0.616279 17.9784 0.823239 17.8953 1.04332 17.7891C1.26341 17.6839 1.48349 17.5477 1.70368 17.3804C1.93258 17.2131 2.13062 17.0017 2.29792 16.7462C2.45639 16.4998 2.61487 16.0771 2.77335 15.478C2.93183 14.871 3.08149 14.1618 3.22243 13.3523C3.36328 12.5329 3.49531 11.6483 3.61863 10.6977C3.75066 9.74602 3.86075 8.80438 3.9488 7.87075C4.04567 6.93812 4.1205 6.04857 4.17329 5.20309C4.2349 4.35862 4.27016 3.63133 4.27898 3.02427H1.70368V1.98146C1.81808 1.91935 2.00741 1.85324 2.27157 1.78312C2.53563 1.71199 2.82624 1.64688 3.14319 1.58477C3.46896 1.52266 3.79914 1.47456 4.13362 1.4395C4.47703 1.39542 4.78516 1.3734 5.05814 1.3734C5.41907 1.3734 5.72731 1.38242 5.98256 1.39945C6.24672 1.40846 6.47562 1.43951 6.66936 1.4926C6.86309 1.53668 7.02588 1.6068 7.15801 1.70397C7.29886 1.80013 7.42217 1.92838 7.52776 2.08665C7.85353 2.84398 8.1837 3.64036 8.51829 4.47682C8.85287 5.30427 9.17864 6.14574 9.4956 6.99923C9.81255 7.85373 10.9835 11.2657 13.0085 17.2351C14.8135 11.7846 15.9581 8.39067 16.4423 7.05233C16.9265 5.70498 17.3491 4.58302 17.7102 3.68445C18.0711 2.77786 18.3529 2.15276 18.5553 1.80916C18.5465 1.80015 18.6126 1.77409 18.7535 1.73001C18.9031 1.67692 19.0837 1.62484 19.2949 1.57175C19.5062 1.51865 19.7308 1.47456 19.9685 1.4395C20.215 1.39542 20.4395 1.3734 20.642 1.3734C20.8533 1.3734 21.025 1.39542 21.1571 1.4395C21.2891 1.47456 21.3948 1.5367 21.474 1.62485C21.5533 1.70399 21.6149 1.80915 21.659 1.94138C21.7029 2.0646 21.7426 2.20985 21.7778 2.37714L23.9173 18.5023L26.4265 18.1197L26.6643 19.0964C26.4794 19.2817 26.2152 19.467 25.8718 19.6514C25.5285 19.8277 25.1499 19.9909 24.736 20.1402C24.3311 20.2894 23.9085 20.4087 23.4682 20.4968C23.0369 20.594 22.6363 20.6421 22.2664 20.6421C22.1168 20.6421 21.9627 20.6241 21.8042 20.589C21.6545 20.5629 21.5137 20.5098 21.3816 20.4307C21.2584 20.3606 21.1483 20.2634 21.0514 20.1402C20.9633 20.008 20.9061 19.8407 20.8797 19.6383L19.2289 6.08864C18.4189 8.42172 17.5164 10.9221 16.5216 13.5898C15.5355 16.2484 14.9191 17.8682 14.6725 18.4492C14.4348 19.0313 14.2456 19.458 14.1048 19.7305C13.9726 20.0039 13.8846 20.1662 13.8406 20.2193C13.7965 20.2724 13.7746 20.2945 13.7746 20.2855H12.3351C12.1237 20.2855 11.9388 20.2724 11.7803 20.2454C11.6218 20.2103 11.481 20.1532 11.3578 20.0741C11.2344 19.9949 11.1244 19.8847 11.0276 19.7435C10.9307 19.6032 10.8426 19.423 10.7634 19.2026C9.9006 16.8955 9.17864 14.9191 8.59753 13.2722C8.01641 11.6263 7.5498 10.275 7.19758 9.21811C6.78376 7.97694 6.45809 6.95115 6.22027 6.14074C6.1763 6.88905 6.12791 7.66438 6.07502 8.46579C6.03104 9.25817 5.97384 10.0546 5.90332 10.856C5.84171 11.6484 5.76688 12.4277 5.67882 13.193C5.59077 13.9594 5.48959 14.6817 5.37509 15.3588C5.26059 16.037 5.12856 16.6621 4.9789 17.2351C4.82924 17.7981 4.65754 18.2739 4.4638 18.6606ZM41.0965 12.573C41.1493 12.3967 41.1846 12.2204 41.2022 12.0441C41.2197 11.8688 41.2286 11.6834 41.2286 11.4901C41.2286 11.0583 41.1537 10.6266 41.0041 10.1958C40.8632 9.75506 40.6518 9.35936 40.3702 9.00674C40.0972 8.65512 39.7539 8.36863 39.3401 8.14824C38.9351 7.92886 38.4683 7.81866 37.9401 7.81866C37.2621 7.81866 36.6943 7.94988 36.2364 8.21434C35.7875 8.46979 35.4176 8.81742 35.1271 9.25819C34.8454 9.68894 34.6384 10.1958 34.5064 10.7768C34.3743 11.3488 34.2906 11.9479 34.2555 12.573H41.0965ZM31.1783 13.5236C31.1783 12.4758 31.3456 11.5161 31.6802 10.6446C32.0236 9.76407 32.5121 9.00674 33.1461 8.37264C33.7889 7.73953 34.5724 7.24565 35.4968 6.89404C36.4214 6.53241 37.4691 6.35211 38.64 6.35211C39.5205 6.35211 40.3086 6.49335 41.0041 6.77484C41.6996 7.05633 42.2895 7.435 42.7738 7.91083C43.258 8.38666 43.6277 8.9366 43.8831 9.56169C44.1384 10.1868 44.2661 10.8379 44.2661 11.5161C44.2661 11.8327 44.2397 12.1502 44.1868 12.4668C44.134 12.7844 44.0328 13.0698 43.8831 13.3253C43.7334 13.5807 43.5222 13.7921 43.2492 13.9594C42.9762 14.1177 42.6197 14.1968 42.1794 14.1968H34.2819C34.3699 14.9892 34.5768 15.6894 34.9026 16.2975C35.2284 16.9045 35.6466 17.4194 36.1572 17.8422C36.6679 18.2559 37.2578 18.5685 37.9269 18.7798C38.5961 18.9912 39.318 19.0964 40.0928 19.0964C40.6211 19.0964 41.167 19.0533 41.7304 18.9652C42.2939 18.868 42.875 18.7227 43.4737 18.5294L43.9095 19.4139C43.5485 19.6604 43.1611 19.8717 42.7473 20.048C42.3335 20.2233 41.9065 20.3646 41.4663 20.4708C41.0261 20.585 40.577 20.6681 40.1192 20.7212C39.6614 20.7743 39.2123 20.8004 38.7722 20.8004C37.8037 20.8004 36.8615 20.6461 35.9459 20.3386C35.039 20.039 34.229 19.5852 33.5159 18.9782C32.8115 18.3701 32.2437 17.6128 31.8122 16.7062C31.3896 15.7996 31.1783 14.7388 31.1783 13.5236ZM60.5341 9.13896C60.2699 8.99771 60.0015 8.85747 59.7285 8.71622C59.4555 8.57598 59.165 8.45177 58.8569 8.34659C58.5575 8.23239 58.2318 8.14423 57.8796 8.08212C57.5273 8.012 57.14 7.97692 56.7173 7.97692C56.1187 7.97692 55.6036 8.1172 55.1722 8.39969C54.7496 8.68118 54.4018 9.07284 54.1289 9.57472C53.8647 10.0766 53.671 10.6796 53.5478 11.3839C53.4245 12.0801 53.3629 12.8454 53.3629 13.6819C53.3629 14.5364 53.4421 15.2977 53.6006 15.9669C53.7591 16.6271 53.988 17.1911 54.2874 17.6569C54.5867 18.1147 54.952 18.4673 55.3835 18.7137C55.8238 18.9511 56.3255 19.0703 56.889 19.0703C57.5494 19.0703 58.2009 18.9291 58.8436 18.6476C59.4952 18.3571 60.0587 17.9744 60.5341 17.4986V9.13896ZM60.5341 1.54469H58.2097V0.541932C58.3947 0.461792 58.6543 0.387687 58.9889 0.316563C59.3235 0.24644 59.6888 0.18932 60.0851 0.145243C60.4901 0.101166 60.8994 0.0661241 61.3133 0.0400786C61.7359 0.0130313 62.1189 0 62.4623 0C62.6476 0 62.8099 0.00400749 62.9511 0.0130233C63.0914 0.022039 63.2106 0.048064 63.3077 0.092141C63.4039 0.136218 63.475 0.207371 63.5191 0.30354C63.5712 0.391694 63.5983 0.523921 63.5983 0.700229V18.9652H65.8963V19.9549C65.746 20.034 65.5397 20.1091 65.2752 20.1803C65.0197 20.2504 64.7342 20.3115 64.4167 20.3646C64.1001 20.4177 63.7696 20.4568 63.426 20.4838C63.0834 20.5098 62.7528 20.5229 62.4362 20.5229C62.1628 20.5229 61.912 20.5058 61.6831 20.4708C61.4542 20.4437 61.2517 20.3826 61.0756 20.2855C60.9083 20.1973 60.7762 20.0741 60.6794 19.9158C60.5825 19.7485 60.5341 19.5281 60.5341 19.2556V19.0443C60.446 19.1054 60.2788 19.2286 60.0322 19.4139C59.7857 19.5902 59.4731 19.7746 59.0946 19.9689C58.7247 20.1532 58.289 20.3205 57.7871 20.4708C57.294 20.62 56.757 20.6952 56.1759 20.6952C55.2515 20.6952 54.415 20.5098 53.6666 20.1402C52.9183 19.7615 52.28 19.2506 51.7517 18.6085C51.2234 17.9564 50.814 17.199 50.5234 16.3365C50.2417 15.474 50.1009 14.5534 50.1009 13.5767C50.1009 12.5019 50.2197 11.5201 50.4574 10.6316C50.7039 9.74203 51.0738 8.9807 51.5667 8.34659C52.0686 7.71248 52.6937 7.22361 53.4421 6.88101C54.1905 6.5284 55.0665 6.35211 56.0702 6.35211C56.8451 6.35211 57.611 6.46228 58.3682 6.68267C59.1342 6.89404 59.8561 7.24565 60.5341 7.73951V1.54469ZM75.7585 18.9652H78.0565V19.9549C77.9073 20.034 77.6999 20.1091 77.4364 20.1803C77.181 20.2504 76.8945 20.3115 76.5779 20.3646C76.2604 20.4177 75.9308 20.4568 75.5872 20.4838C75.2436 20.5098 74.913 20.5229 74.5965 20.5229C74.324 20.5229 74.0726 20.5058 73.8442 20.4708C73.6148 20.4437 73.4124 20.3826 73.2361 20.2855C73.0688 20.1973 72.9366 20.0741 72.8404 19.9158C72.7432 19.7485 72.6952 19.5281 72.6952 19.2556V8.05607H70.3701V7.06536C70.5554 6.98622 70.8149 6.91109 71.1495 6.84097C71.484 6.77084 71.8497 6.71372 72.2454 6.66965C72.6511 6.62557 73.0598 6.59052 73.4735 6.56347C73.8963 6.53743 74.2799 6.5244 74.6225 6.5244C74.8078 6.5244 74.9711 6.52841 75.1114 6.53743C75.2526 6.54644 75.3718 6.57247 75.468 6.61654C75.5652 6.66062 75.6353 6.73077 75.6794 6.82794C75.7325 6.9161 75.7585 7.04832 75.7585 7.22362V18.9652ZM72.3776 2.16577C72.3776 1.91934 72.4267 1.68593 72.5229 1.46554C72.62 1.24616 72.7523 1.05684 72.9195 0.897565C73.0868 0.739288 73.2852 0.616085 73.5136 0.527931C73.743 0.431763 73.9844 0.382657 74.2399 0.382657C74.4953 0.382657 74.7377 0.431763 74.9661 0.527931C75.1955 0.616085 75.3929 0.739288 75.5602 0.897565C75.7275 1.05684 75.8597 1.24616 75.9569 1.46554C76.054 1.68593 76.1021 1.91934 76.1021 2.16577C76.1021 2.4122 76.054 2.64161 75.9569 2.85298C75.8597 3.06435 75.7275 3.24868 75.5602 3.40696C75.3929 3.56623 75.1955 3.69345 74.9661 3.79062C74.7377 3.87878 74.4953 3.92284 74.2399 3.92284C73.9844 3.92284 73.743 3.87878 73.5136 3.79062C73.2852 3.69345 73.0868 3.56623 72.9195 3.40696C72.7523 3.24868 72.62 3.06435 72.5229 2.85298C72.4267 2.64161 72.3776 2.4122 72.3776 2.16577ZM87.9989 18.4232H90.3891C91.5691 18.4232 92.7532 18.3441 93.9413 18.1858C95.1304 18.0275 96.2964 17.7631 97.4414 17.3934C97.4414 17.4024 97.4544 17.4505 97.4815 17.5386C97.5075 17.6178 97.5386 17.728 97.5736 17.8682C97.6087 18.0095 97.6398 18.1727 97.6658 18.3571C97.7009 18.5334 97.7189 18.7097 97.7189 18.886C97.7189 19.2727 97.6177 19.5722 97.4154 19.7836C97.221 19.9949 96.8915 20.1492 96.4246 20.2454C95.9668 20.3425 95.3548 20.3996 94.5884 20.4177C93.8321 20.4347 92.8894 20.4437 91.7625 20.4437C91.1634 20.4437 90.5604 20.4397 89.9533 20.4307C89.3543 20.4217 88.7913 20.4087 88.2624 20.3906C87.7435 20.3826 87.2766 20.3646 86.8629 20.3386C86.4582 20.3205 86.1457 20.3035 85.9253 20.2855C85.5116 20.2504 85.2341 20.1492 85.0928 19.9819C84.9616 19.8056 84.8955 19.5281 84.8955 19.1495V3.02427H82.346V1.98146C82.4783 1.91034 82.6766 1.84021 82.9401 1.77009C83.2045 1.69897 83.5081 1.63285 83.8517 1.57175C84.2043 1.50964 84.5869 1.46154 85.0007 1.42647C85.4144 1.39141 85.8371 1.3734 86.2689 1.3734C86.6125 1.3734 86.894 1.37741 87.1144 1.38643C87.3337 1.39544 87.51 1.42147 87.6423 1.46554C87.7745 1.50161 87.8667 1.56672 87.9198 1.66389C87.9719 1.76106 87.9989 1.89332 87.9989 2.06061V18.4232ZM112.191 12.573C112.243 12.3967 112.278 12.2204 112.296 12.0441C112.314 11.8688 112.322 11.6834 112.322 11.4901C112.322 11.0583 112.248 10.6266 112.098 10.1958C111.958 9.75506 111.746 9.35936 111.464 9.00674C111.191 8.65512 110.848 8.36863 110.434 8.14824C110.029 7.92886 109.563 7.81866 109.035 7.81866C108.356 7.81866 107.788 7.94988 107.331 8.21434C106.882 8.46979 106.512 8.81742 106.222 9.25819C105.939 9.68894 105.733 10.1958 105.601 10.7768C105.468 11.3488 105.385 11.9479 105.349 12.573H112.191ZM102.273 13.5236C102.273 12.4758 102.44 11.5161 102.775 10.6446C103.117 9.76407 103.606 9.00674 104.24 8.37264C104.883 7.73953 105.667 7.24565 106.591 6.89404C107.516 6.53241 108.563 6.35211 109.734 6.35211C110.614 6.35211 111.403 6.49335 112.098 6.77484C112.794 7.05633 113.383 7.435 113.868 7.91083C114.352 8.38666 114.722 8.9366 114.977 9.56169C115.233 10.1868 115.361 10.8379 115.361 11.5161C115.361 11.8327 115.334 12.1502 115.281 12.4668C115.228 12.7844 115.127 13.0698 114.977 13.3253C114.828 13.5807 114.616 13.7921 114.343 13.9594C114.07 14.1177 113.714 14.1968 113.274 14.1968H105.376C105.464 14.9892 105.671 15.6894 105.996 16.2975C106.323 16.9045 106.741 17.4194 107.252 17.8422C107.762 18.2559 108.351 18.5685 109.021 18.7798C109.69 18.9912 110.412 19.0964 111.187 19.0964C111.715 19.0964 112.261 19.0533 112.824 18.9652C113.388 18.868 113.969 18.7227 114.568 18.5294L115.004 19.4139C114.642 19.6604 114.256 19.8717 113.841 20.048C113.427 20.2233 113.001 20.3646 112.561 20.4708C112.12 20.585 111.671 20.6681 111.213 20.7212C110.756 20.7743 110.307 20.8004 109.866 20.8004C108.897 20.8004 107.956 20.6461 107.04 20.3386C106.134 20.039 105.323 19.5852 104.61 18.9782C103.906 18.3701 103.338 17.6128 102.906 16.7062C102.484 15.7996 102.273 14.7388 102.273 13.5236ZM129.832 19.1234C129.832 19.1234 129.771 19.1625 129.648 19.2416C129.532 19.3128 129.37 19.4049 129.159 19.5191C128.956 19.6343 128.714 19.7615 128.433 19.9028C128.159 20.034 127.856 20.1622 127.521 20.2855C127.195 20.3997 126.852 20.4968 126.491 20.576C126.139 20.6551 125.782 20.6952 125.421 20.6952C124.849 20.6952 124.303 20.616 123.783 20.4567C123.264 20.3075 122.806 20.0701 122.41 19.7435C122.022 19.4179 121.71 19.0092 121.472 18.5154C121.243 18.0225 121.129 17.4324 121.129 16.7462C121.129 15.9889 121.296 15.3458 121.631 14.8179C121.974 14.29 122.445 13.8622 123.044 13.5367C123.651 13.2021 124.373 12.9647 125.21 12.8234C126.046 12.6741 126.966 12.599 127.97 12.599H129.832V11.6083C129.832 11.0984 129.81 10.6095 129.766 10.1427C129.731 9.6669 129.639 9.25316 129.488 8.90154C129.348 8.54893 129.137 8.26744 128.855 8.05607C128.582 7.8447 128.212 7.73951 127.745 7.73951C127.297 7.73951 126.848 7.82266 126.398 7.98995C125.949 8.14822 125.509 8.3506 125.078 8.59703C124.646 8.84446 124.232 9.11693 123.837 9.41645C123.44 9.70696 123.079 9.98443 122.754 10.2479L121.671 8.79537C121.539 8.63709 121.472 8.4738 121.472 8.30651C121.472 8.016 121.653 7.75256 122.013 7.51414C122.384 7.27673 122.842 7.07435 123.388 6.90706C123.942 6.73075 124.537 6.59452 125.17 6.49735C125.804 6.40118 126.394 6.35211 126.94 6.35211C127.75 6.35211 128.516 6.44925 129.238 6.64259C129.96 6.83693 130.589 7.14447 131.126 7.56721C131.672 7.98093 132.104 8.52289 132.421 9.19206C132.738 9.85221 132.896 10.6576 132.896 11.6083V18.9652H135.194V19.9549C135.044 20.034 134.838 20.1091 134.573 20.1803C134.318 20.2504 134.032 20.3115 133.715 20.3646C133.398 20.4177 133.064 20.4568 132.711 20.4838C132.367 20.5098 132.038 20.5229 131.72 20.5229C131.509 20.5229 131.294 20.5098 131.073 20.4838C130.854 20.4568 130.651 20.3956 130.466 20.2985C130.29 20.2103 130.141 20.0871 130.017 19.9288C129.902 19.7615 129.841 19.5371 129.832 19.2556V19.1234ZM126.346 18.7398C126.653 18.7398 127.006 18.7007 127.402 18.6215C127.807 18.5334 128.19 18.4412 128.551 18.344C128.974 18.2298 129.4 18.0926 129.832 17.9343V14.2239H127.613C127.279 14.2239 126.909 14.2539 126.504 14.316C126.108 14.3781 125.734 14.4963 125.381 14.6726C125.038 14.8399 124.747 15.0774 124.51 15.3859C124.272 15.6934 124.153 16.0991 124.153 16.601C124.153 16.9176 124.202 17.2081 124.298 17.4725C124.396 17.728 124.537 17.9524 124.721 18.1457C124.906 18.331 125.135 18.4763 125.408 18.5815C125.681 18.6876 125.993 18.7398 126.346 18.7398ZM145.215 8.38667V20.4968C145.215 21.5707 145.031 22.5043 144.661 23.2967C144.299 24.0891 143.815 24.7402 143.207 25.2511C142.609 25.771 141.927 26.1537 141.161 26.4001C140.394 26.6556 139.611 26.7828 138.81 26.7828C138.634 26.7828 138.401 26.7748 138.11 26.7568C137.82 26.7387 137.537 26.7037 137.265 26.6506C136.984 26.5985 136.741 26.5194 136.539 26.4132C136.336 26.308 136.235 26.1667 136.235 25.9904C136.235 25.9464 136.239 25.9073 136.248 25.8722C136.257 25.8362 136.27 25.7971 136.287 25.753L137.159 23.7455C137.485 23.8868 137.815 24.027 138.15 24.1682C138.484 24.3095 138.806 24.4367 139.114 24.5509C139.422 24.6661 139.712 24.7583 139.986 24.8284C140.267 24.8985 140.514 24.9346 140.725 24.9346C141.095 24.9346 141.381 24.7933 141.584 24.5118C141.786 24.2384 141.931 23.8868 142.019 23.455C142.107 23.0323 142.156 22.5614 142.165 22.0415C142.183 21.5226 142.191 21.0157 142.191 20.5229L142.165 8.38667H139.021V7.7916C139.021 7.39591 139.105 7.12746 139.273 6.98621C139.449 6.83695 139.725 6.76182 140.104 6.76182H142.165V5.8903C142.165 4.83345 142.328 3.93588 142.653 3.19559C142.988 2.44728 143.433 1.84022 143.987 1.3734C144.542 0.897571 145.176 0.549948 145.889 0.330564C146.61 0.110179 147.36 0 148.134 0C148.301 0 148.544 0.00901673 148.86 0.0260465C149.186 0.044078 149.507 0.0881436 149.824 0.158266C150.142 0.220375 150.414 0.321561 150.643 0.461806C150.881 0.594037 151 0.774337 151 1.00374C151 1.07386 150.987 1.13599 150.96 1.18808C150.943 1.24117 150.912 1.30328 150.868 1.3734L149.89 3.14349C149.555 2.96719 149.235 2.79086 148.926 2.61456C148.618 2.43925 148.323 2.28498 148.042 2.15275C147.759 2.0115 147.487 1.89732 147.222 1.80916C146.967 1.72101 146.73 1.67691 146.509 1.67691C146.211 1.67691 145.972 1.75207 145.796 1.90133C145.629 2.0516 145.501 2.26697 145.413 2.54846C145.325 2.83095 145.268 3.17855 145.242 3.59228C145.224 3.99698 145.215 4.4598 145.215 4.9787V6.76182H149.006V7.3298C149.006 7.72549 148.917 8.00299 148.741 8.16127C148.574 8.31153 148.301 8.38667 147.923 8.38667H145.215Z" fill="black"/>
</svg>
